# xmcd
#
# Track frame offsets:
#	183
#	18208
#	34958
#	51248
#	67490
#	85570
#	105183
#	121558
#	139773
#	157980
#	176123
#	194388
#
# Disc length: 2930 seconds
#
# Revision: 1
# Processed by: cddbd v1.5.1PL0 Copyright (c) Steve Scherf et al.
# Submitted via: CDex 1.50Beta5
#
DISCID=980b700c
DTITLE=Ariella - Je vous souris
DYEAR=1900
DGENRE=World
TTITLE0=La garce
TTITLE1=Pour qui pour quoi
TTITLE2=Chute
TTITLE3=Bonjour monsieur
TTITLE4=Lady boude
TTITLE5=Gamine
TTITLE6=Attention 将「 lui
TTITLE7=Pygmalion
TTITLE8=Photo
TTITLE9=Romantique
TTITLE10=C'est une question d'amour
TTITLE11=Attention 将「 lui (remix)
EXTD=
EXTT0=
EXTT1=
EXTT2=
EXTT3=
EXTT4=
EXTT5=
EXTT6=
EXTT7=
EXTT8=
EXTT9=
EXTT10=
EXTT11=
PLAYORDER=
